<svg id="Filled" height="512" viewBox="0 0 512 512" width="512" xmlns="http://www.w3.org/2000/svg"><path d="m424 448h-336a64 64 0 0 1 -64-64v-304h336v304a64 64 0 0 0 64 64z" fill="#e9eef2"/><path d="m488 160v224a64 64 0 0 1 -128 0v-256h96a32 32 0 0 1 32 32z" fill="#9aa3a8"/><path d="m424 272h-64v-144h96a32 32 0 0 0 -32 32z" fill="#dadcde"/><path d="m64 248h112v64h-112z" fill="#9aa3a8"/><path d="m64 344h112v64h-112z" fill="#9aa3a8"/><path d="m456 120h-88v-40a8 8 0 0 0 -8-8h-336a8 8 0 0 0 -8 8v304a72.081 72.081 0 0 0 72 72h336a72.081 72.081 0 0 0 72-72v-224a40.045 40.045 0 0 0 -40-40zm-31.981 16a39.792 39.792 0 0 0 -8.019 24v104h-48v-128zm-72.019-48v112h-320v-112zm-264 352a56.063 56.063 0 0 1 -56-56v-168h320v168a71.9 71.9 0 0 0 26.793 56zm392-56a56 56 0 0 1 -112 0v-104h56a8 8 0 0 0 8-8v-112a24 24 0 0 1 48 0z"/><path d="m80 184a8 8 0 0 0 8-8v-30.111l16.845 33.689a8 8 0 0 0 15.155-3.578v-64a8 8 0 0 0 -16 0v30.111l-16.845-33.689a8 8 0 0 0 -15.155 3.578v64a8 8 0 0 0 8 8z"/><path d="m144 184h16a8 8 0 0 0 0-16h-8v-16h8a8 8 0 0 0 0-16h-8v-16h8a8 8 0 0 0 0-16h-16a8 8 0 0 0 -8 8v64a8 8 0 0 0 8 8z"/><path d="m190.162 183.786a8.005 8.005 0 0 0 8.993-4.208l16.845-33.689 16.845 33.689a8 8 0 0 0 15.155-3.578v-64a8 8 0 0 0 -16 0v30.111l-8.845-17.689a8 8 0 0 0 -14.31 0l-8.845 17.689v-30.111a8 8 0 0 0 -16 0v64a8 8 0 0 0 6.162 7.786z"/><path d="m288 168a8.009 8.009 0 0 1 -8-8 8 8 0 0 0 -16 0 24 24 0 1 0 24-24 8 8 0 1 1 8-8 8 8 0 0 0 16 0 24 24 0 1 0 -24 24 8 8 0 0 1 0 16z"/><path d="m176 240h-112a8 8 0 0 0 -8 8v64a8 8 0 0 0 8 8h112a8 8 0 0 0 8-8v-64a8 8 0 0 0 -8-8zm-8 64h-96v-48h96z"/><path d="m176 336h-112a8 8 0 0 0 -8 8v64a8 8 0 0 0 8 8h112a8 8 0 0 0 8-8v-64a8 8 0 0 0 -8-8zm-8 64h-96v-48h96z"/><path d="m208 256h80a8 8 0 0 0 0-16h-80a8 8 0 0 0 0 16z"/><path d="m320 272h-64a8 8 0 0 0 0 16h64a8 8 0 0 0 0-16z"/><path d="m320 304h-112a8 8 0 0 0 0 16h112a8 8 0 0 0 0-16z"/><path d="m208 352h80a8 8 0 0 0 0-16h-80a8 8 0 0 0 0 16z"/><path d="m320 368h-64a8 8 0 0 0 0 16h64a8 8 0 0 0 0-16z"/><path d="m320 400h-112a8 8 0 0 0 0 16h112a8 8 0 0 0 0-16z"/><path d="m208 384h16a8 8 0 0 0 0-16h-16a8 8 0 0 0 0 16z"/><path d="m208 288h16a8 8 0 0 0 0-16h-16a8 8 0 0 0 0 16z"/></svg>